<svg xmlns="http://www.w3.org/2000/svg" viewBox="0 0 800 800" width="800" height="800">
  <!-- Background Elements -->
  <defs>
    <linearGradient id="grad1" x1="0%" y1="0%" x2="100%" y2="100%">
      <stop offset="0%" style="stop-color:#7f5af0;stop-opacity:0.7" />
      <stop offset="100%" style="stop-color:#2cb67d;stop-opacity:0.7" />
    </linearGradient>
    <linearGradient id="grad2" x1="0%" y1="0%" x2="100%" y2="100%">
      <stop offset="0%" style="stop-color:#ff8906;stop-opacity:0.7" />
      <stop offset="100%" style="stop-color:#e53170;stop-opacity:0.7" />
    </linearGradient>
    <linearGradient id="gradSkin" x1="0%" y1="0%" x2="100%" y2="100%">
      <stop offset="0%" style="stop-color:#FFD3B5;stop-opacity:1" />
      <stop offset="100%" style="stop-color:#DDBEA8;stop-opacity:1" />
    </linearGradient>
    <linearGradient id="gradShirt" x1="0%" y1="0%" x2="100%" y2="100%">
      <stop offset="0%" style="stop-color:#7f5af0;stop-opacity:0.9" />
      <stop offset="100%" style="stop-color:#5539af;stop-opacity:0.9" />
    </linearGradient>
    <linearGradient id="gradPants" x1="0%" y1="0%" x2="100%" y2="100%">
      <stop offset="0%" style="stop-color:#2a2a3d;stop-opacity:0.9" />
      <stop offset="100%" style="stop-color:#1a1a2e;stop-opacity:0.9" />
    </linearGradient>
    <linearGradient id="gradMonitor" x1="0%" y1="0%" x2="100%" y2="100%">
      <stop offset="0%" style="stop-color:#1a1a2e;stop-opacity:0.9" />
      <stop offset="100%" style="stop-color:#16161d;stop-opacity:0.9" />
    </linearGradient>
    <linearGradient id="gradScreen" x1="0%" y1="0%" x2="100%" y2="100%">
      <stop offset="0%" style="stop-color:#0f0e17;stop-opacity:0.9" />
      <stop offset="100%" style="stop-color:#232946;stop-opacity:0.9" />
    </linearGradient>
    <linearGradient id="gradKeyboard" x1="0%" y1="0%" x2="100%" y2="100%">
      <stop offset="0%" style="stop-color:#2a2a3d;stop-opacity:0.9" />
      <stop offset="100%" style="stop-color:#1a1a2e;stop-opacity:0.9" />
    </linearGradient>
    <filter id="glow" x="-20%" y="-20%" width="140%" height="140%">
      <feGaussianBlur stdDeviation="8" result="blur" />
      <feColorMatrix in="blur" mode="matrix" values="1 0 0 0 0  0 1 0 0 0  0 0 1 0 0  0 0 0 18 -7" result="glow" />
      <feBlend in="SourceGraphic" in2="glow" mode="normal" />
    </filter>
    <filter id="shadow" x="-20%" y="-20%" width="140%" height="140%">
      <feDropShadow dx="10" dy="10" stdDeviation="5" flood-color="#000" flood-opacity="0.3" />
    </filter>
  </defs>
  
  <!-- Decorative Background Elements -->
  <g id="background-elements">
    <!-- Abstract Shapes -->
    <circle cx="150" cy="650" r="300" fill="url(#grad1)" opacity="0.1" />
    <circle cx="650" cy="150" r="250" fill="url(#grad2)" opacity="0.1" />
    
    <!-- Floating Code Elements -->
    <g fill="#7f5af0" opacity="0.2" transform="translate(50, 100)">
      <text x="0" y="0" font-family="monospace" font-size="20">&lt;div class="container"&gt;</text>
      <text x="20" y="30" font-family="monospace" font-size="20">&lt;header&gt;</text>
      <text x="40" y="60" font-family="monospace" font-size="20">&lt;nav&gt;&lt;/nav&gt;</text>
      <text x="20" y="90" font-family="monospace" font-size="20">&lt;/header&gt;</text>
      <text x="0" y="120" font-family="monospace" font-size="20">&lt;/div&gt;</text>
    </g>
    
    <g fill="#ff8906" opacity="0.2" transform="translate(600, 600)">
      <text x="0" y="0" font-family="monospace" font-size="20">function init() {</text>
      <text x="20" y="30" font-family="monospace" font-size="20">return {</text>
      <text x="40" y="60" font-family="monospace" font-size="20">name: 'Dev',</text>
      <text x="40" y="90" font-family="monospace" font-size="20">skills: ['JS', 'CSS']</text>
      <text x="20" y="120" font-family="monospace" font-size="20">};</text>
      <text x="0" y="150" font-family="monospace" font-size="20">}</text>
    </g>
  </g>
  
  <!-- Desk and Work Environment -->
  <g id="desk" transform="translate(400, 500)" filter="url(#shadow)">
    <!-- Desk Surface -->
    <rect x="-300" y="0" width="600" height="30" rx="5" fill="#302f44" />
    <rect x="-290" y="30" width="580" height="10" rx="2" fill="#242338" />
    
    <!-- Desk Legs -->
    <rect x="-280" y="40" width="20" height="100" rx="2" fill="#242338" />
    <rect x="260" y="40" width="20" height="100" rx="2" fill="#242338" />
  </g>
  
  <!-- Character -->
  <g id="character" transform="translate(400, 400)">
    <!-- Torso -->
    <ellipse cx="0" cy="-70" rx="80" ry="100" fill="url(#gradShirt)" />
    
    <!-- Arms -->
    <path d="M-60,-80 C-120,-40 -140,10 -110,50" stroke="url(#gradShirt)" stroke-width="30" fill="none" />
    <path d="M60,-80 C120,-40 140,10 160,80" stroke="url(#gradShirt)" stroke-width="30" fill="none" />
    
    <!-- Hands -->
    <circle cx="-110" cy="50" r="20" fill="url(#gradSkin)" />
    <circle cx="160" cy="80" r="20" fill="url(#gradSkin)" />
    
    <!-- Head -->
    <circle cx="0" cy="-180" r="70" fill="url(#gradSkin)" />
    
    <!-- Hair -->
    <path d="M-70,-180 C-70,-220 70,-220 70,-180" stroke="#302f44" stroke-width="40" fill="#302f44" />
    <rect x="-70" y="-210" width="140" height="40" fill="#302f44" />
    
    <!-- Eyes -->
    <ellipse cx="-25" cy="-185" rx="10" ry="8" fill="#302f44" />
    <ellipse cx="25" cy="-185" rx="10" ry="8" fill="#302f44" />
    
    <!-- Mouth -->
    <path d="M-20,-150 C-10,-145 10,-145 20,-150" stroke="#302f44" stroke-width="3" fill="none" />
    
    <!-- Legs -->
    <path d="M-30,30 L-40,150" stroke="url(#gradPants)" stroke-width="50" />
    <path d="M30,30 L40,150" stroke="url(#gradPants)" stroke-width="50" />
  </g>
  
  <!-- Computer Setup -->
  <g id="computer" transform="translate(400, 350)">
    <!-- Monitor -->
    <rect x="-100" y="-120" width="200" height="140" rx="5" fill="url(#gradMonitor)" />
    <rect x="-90" y="-110" width="180" height="120" rx="3" fill="url(#gradScreen)" />
    
    <!-- Screen Content (Code Editor) -->
    <g transform="translate(-85, -100)" opacity="0.9">
      <rect x="0" y="0" width="170" height="100" fill="none" />
      
      <!-- Code Lines -->
      <rect x="5" y="10" width="100" height="4" rx="2" fill="#ff8906" opacity="0.7" />
      <rect x="5" y="20" width="80" height="4" rx="2" fill="#e53170" opacity="0.7" />
      <rect x="15" y="30" width="120" height="4" rx="2" fill="#7f5af0" opacity="0.7" />
      <rect x="15" y="40" width="90" height="4" rx="2" fill="#7f5af0" opacity="0.7" />
      <rect x="5" y="50" width="70" height="4" rx="2" fill="#e53170" opacity="0.7" />
      <rect x="5" y="60" width="130" height="4" rx="2" fill="#ff8906" opacity="0.7" />
      <rect x="15" y="70" width="100" height="4" rx="2" fill="#7f5af0" opacity="0.7" />
      <rect x="5" y="80" width="60" height="4" rx="2" fill="#e53170" opacity="0.7" />
    </g>
    
    <!-- Monitor Stand -->
    <rect x="-20" y="20" width="40" height="10" rx="2" fill="#242338" />
    <rect x="-30" y="30" width="60" height="5" rx="2" fill="#1a1a2e" />
    
    <!-- Keyboard -->
    <rect x="-120" y="40" width="190" height="15" rx="3" fill="url(#gradKeyboard)" />
    
    <!-- Coffee Mug -->
    <g transform="translate(120, 30)">
      <path d="M0,0 L0,20 A10,5 0 0,0 20,20 L20,0 Z" fill="#e53170" />
      <ellipse cx="10" cy="0" rx="10" ry="3" fill="#e53170" />
      <ellipse cx="10" cy="0" rx="7" ry="2" fill="#ff8906" opacity="0.7" />
      <path d="M20,5 C25,5 25,15 20,15" stroke="#e53170" stroke-width="3" fill="none" />
    </g>
  </g>
  
  <!-- Glowing Elements -->
  <g filter="url(#glow)">
    <circle cx="400" cy="240" r="5" fill="#ff8906" />
    <circle cx="200" cy="150" r="3" fill="#e53170" />
    <circle cx="600" cy="300" r="4" fill="#7f5af0" />
    <circle cx="300" cy="100" r="2" fill="#2cb67d" />
    <circle cx="500" cy="200" r="3" fill="#ff8906" />
  </g>
</svg>